<svg width="47" height="58" viewBox="0 0 47 58" fill="none" xmlns="http://www.w3.org/2000/svg">
<path fill-rule="evenodd" clip-rule="evenodd" d="M10.1231 43.25H7.23077V46.8125H10.1231C11.2077 46.8125 11.9308 46.1 11.9308 45.0312C11.9308 43.9625 11.2077 43.25 10.1231 43.25ZM28.9231 0.5H0V57.5H47V18.3125L28.9231 0.5ZM15.1846 45.3875C15.1846 48.2375 13.0154 50.375 10.1231 50.375H7.23077V53.9375H3.61538V39.6875H10.1231C13.0154 39.6875 15.1846 41.825 15.1846 44.675V45.3875ZM30.0077 47.1688C30.0077 50.7313 27.1154 53.9375 23.1385 53.9375H18.0769V39.6875H23.1385C26.7538 39.6875 30.0077 42.5375 30.0077 46.4562V47.1688ZM43.3846 43.25H36.1539V46.8125H41.5769V50.375H36.1539V53.9375H32.5385V39.6875H43.3846V43.25ZM43.3846 36.125H3.61538V4.0625H28.9231V18.3125H43.3846V36.125ZM23.1385 43.25H21.6923V50.375H23.1385C25.3077 50.375 26.7538 48.95 26.7538 46.8125C26.7538 44.675 24.9462 43.25 23.1385 43.25Z" fill="#D9D9D9"/>
</svg>
