<svg width="17" height="16" viewBox="0 0 17 16" fill="none" xmlns="http://www.w3.org/2000/svg">
<path d="M15.5002 16L10.8761 11.6286C10.3136 12.1079 9.66668 12.4787 8.93543 12.7412C8.20418 13.0037 7.46918 13.135 6.73043 13.135C4.92893 13.135 3.40418 12.5114 2.15618 11.2641C0.90818 10.0169 0.28418 8.49249 0.28418 6.69099C0.28418 4.88949 0.907429 3.36436 2.15393 2.11561C3.40043 0.866862 4.92443 0.241737 6.72593 0.240237C8.52743 0.238737 10.0529 0.862737 11.3024 2.11224C12.5519 3.36174 13.1767 4.88686 13.1767 6.68761C13.1767 7.46911 13.0383 8.22549 12.7616 8.95674C12.4848 9.68799 12.1211 10.3135 11.6703 10.8332L16.5002 15L15.5002 16ZM6.73155 12.0089C8.22405 12.0089 9.48406 11.4951 10.5116 10.4676C11.5391 9.44011 12.0528 8.17974 12.0528 6.68649C12.0528 5.19324 11.5391 3.93324 10.5116 2.90649C9.48406 1.87974 8.22405 1.36599 6.73155 1.36524C5.23905 1.36449 3.97868 1.87824 2.95043 2.90649C1.92218 3.93474 1.40843 5.19474 1.40918 6.68649C1.40993 8.17824 1.92368 9.43824 2.95043 10.4665C3.97718 11.4947 5.23718 12.0085 6.73043 12.0077" fill="#343434"/>
</svg>
