<svg width="27" height="27" viewBox="0 0 27 27" fill="none" xmlns="http://www.w3.org/2000/svg">
<path d="M19.5002 20L14.8761 15.6286C14.3136 16.1079 13.6667 16.4787 12.9354 16.7412C12.2042 17.0037 11.4692 17.135 10.7304 17.135C8.92893 17.135 7.40418 16.5114 6.15618 15.2641C4.90818 14.0169 4.28418 12.4925 4.28418 10.691C4.28418 8.88949 4.90743 7.36436 6.15393 6.11561C7.40043 4.86686 8.92443 4.24174 10.7259 4.24024C12.5274 4.23874 14.0529 4.86274 15.3024 6.11224C16.5519 7.36174 17.1767 8.88686 17.1767 10.6876C17.1767 11.4691 17.0383 12.2255 16.7616 12.9567C16.4848 13.688 16.1211 14.3135 15.6703 14.8332L20.5002 19L19.5002 20ZM10.7316 16.0089C12.2241 16.0089 13.4841 15.4951 14.5116 14.4676C15.5391 13.4401 16.0528 12.1797 16.0528 10.6865C16.0528 9.19324 15.5391 7.93324 14.5116 6.90649C13.4841 5.87974 12.2241 5.36599 10.7316 5.36524C9.23905 5.36449 7.97868 5.87824 6.95043 6.90649C5.92218 7.93474 5.40843 9.19474 5.40918 10.6865C5.40993 12.1782 5.92368 13.4382 6.95043 14.4665C7.97718 15.4947 9.23718 16.0085 10.7304 16.0077" fill="#343434"/>
</svg>
