<svg width="25" height="25" viewBox="0 0 25 25" fill="none" xmlns="http://www.w3.org/2000/svg">
<path d="M1.75 1.75C3.31137e-07 3.51667 0 6.34167 0 12V13C0 18.65 3.31137e-07 21.475 1.75 23.25C3.51667 25 6.34167 25 12 25H13C18.65 25 21.475 25 23.25 23.25C25 21.4833 25 18.6583 25 13V12C25 6.35 25 3.525 23.25 1.75C21.4833 3.31137e-07 18.6583 0 13 0H12C6.35 0 3.525 3.31137e-07 1.75 1.75ZM4.21667 7.60833H7.08333C7.175 12.375 9.275 14.3917 10.9417 14.8083V7.60833H13.6333V11.7167C15.275 11.5417 17.0083 9.66667 17.5917 7.6H20.275C20.056 8.66975 19.6189 9.68287 18.9909 10.5761C18.3629 11.4694 17.5575 12.2236 16.625 12.7917C17.6659 13.3095 18.5851 14.0423 19.322 14.9415C20.0589 15.8407 20.5967 16.886 20.9 18.0083H17.9417C17.3083 16.0333 15.725 14.5 13.6333 14.2917V18.0083H13.3C7.6 18.0083 4.35 14.1083 4.21667 7.60833Z" fill="white"/>
</svg>
